<?xml version="1.0" encoding="UTF-8" standalone="no"?>
<!DOCTYPE svg PUBLIC "-//W3C//DTD SVG 1.1//EN" "http://www.w3.org/Graphics/SVG/1.1/DTD/svg11.dtd">
<svg version="1.1" xmlns="http://www.w3.org/2000/svg" xmlns:xlink="http://www.w3.org/1999/xlink" preserveAspectRatio="xMidYMid meet" viewBox="0 0 640 640" width="640" height="640"><defs><path d="M131.72 514.83L145.91 483.18L153.55 463.53L167.74 424.24L177.56 388.22L184.11 366.39L197.21 336.92L212.49 320.55L233.23 300.9L255.06 281.25L284.53 256.15L312.91 231.04L333.64 213.58L353.29 195.02L379.49 166.65L396.95 147L412.23 132.81L428.6 117.53L446.07 127.35L463.53 149.18L478.81 169.92L491.91 190.66L505.01 210.3L521.38 237.59L531.2 256.15L509.37 271.43L493 285.62L437.34 326L418.78 341.28L396.95 364.21L371.85 387.13L356.57 400.22L329.28 420.96L309.63 437.34L291.08 452.62L272.52 465.71L255.06 481L228.86 490.82L208.12 498.46L186.29 506.1L166.65 513.74L147 520.29L125.17 522.47" id="d25A4dcnfl"></path><path d="M193.93 339.1L220.13 336.92L245.23 332.55L241.96 356.57L226.68 372.94L247.42 364.21L269.25 353.29L287.8 342.38L274.7 366.39L258.33 386.04L281.25 380.58L304.17 372.94L289.98 395.86L273.61 417.69L296.53 420.96L317.27 413.32L335.83 403.5L320.55 417.69L308.54 434.06L295.44 450.43L277.98 460.26" id="b1L5woPQe1"></path></defs><g><g><g><g><use xlink:href="#d25A4dcnfl" opacity="1" fill-opacity="0" stroke="#000000" stroke-width="1" stroke-opacity="1"></use></g></g><g><g><use xlink:href="#b1L5woPQe1" opacity="1" fill-opacity="0" stroke="#000000" stroke-width="1" stroke-opacity="1"></use></g></g></g></g></svg>